0
SECTION
2
HEADER
9
$INSUNITS
70
4
9
$ACADVER
1
AC1014
9
$HANDSEED
5
FFFF
0
ENDSEC
0
SECTION
2
TABLES
0
TABLE
2
VPORT
5
8
100
AcDbSymbolTable
0
ENDTAB
0
TABLE
2
LTYPE
5
5
100
AcDbSymbolTable
0
LTYPE
5
14
100
AcDbSymbolTableRecord
100
AcDbLinetypeTableRecord
2
BYBLOCK
70
0
0
LTYPE
5
15
100
AcDbSymbolTableRecord
100
AcDbLinetypeTableRecord
2
BYLAYER
70
0
0
ENDTAB
0
TABLE
2
LAYER
5
2
100
AcDbSymbolTable
70
2
0
LAYER
5
50
100
AcDbSymbolTableRecord
100
AcDbLayerTableRecord
2
0
70
0
6
CONTINUOUS
0
ENDTAB
0
TABLE
2
STYLE
5
3
100
AcDbSymbolTable
70
1
0
STYLE
5
11
100
AcDbSymbolTableRecord
100
AcDbTextStyleTableRecord
2
STANDARD
70
0
0
ENDTAB
0
TABLE
2
VIEW
5
6
100
AcDbSymbolTable
70
0
0
ENDTAB
0
TABLE
2
UCS
5
7
100
AcDbSymbolTable
70
0
0
ENDTAB
0
TABLE
2
APPID
5
9
100
AcDbSymbolTable
70
2
0
APPID
5
12
100
AcDbSymbolTableRecord
100
AcDbRegAppTableRecord
2
ACAD
70
0
0
ENDTAB
0
TABLE
2
DIMSTYLE
5
A
100
AcDbSymbolTable
70
1
0
ENDTAB
0
TABLE
2
BLOCK_RECORD
5
1
100
AcDbSymbolTable
70
1
0
BLOCK_RECORD
5
1F
100
AcDbSymbolTableRecord
100
AcDbBlockTableRecord
2
*MODEL_SPACE
0
BLOCK_RECORD
5
1B
100
AcDbSymbolTableRecord
100
AcDbBlockTableRecord
2
*PAPER_SPACE
0
ENDTAB
0
ENDSEC
0
SECTION
2
BLOCKS
0
BLOCK
5
20
100
AcDbEntity
100
AcDbBlockBegin
2
*MODEL_SPACE
0
ENDBLK
5
21
100
AcDbEntity
100
AcDbBlockEnd
0
BLOCK
5
1C
100
AcDbEntity
100
AcDbBlockBegin
2
*PAPER_SPACE
0
ENDBLK
5
1D
100
AcDbEntity
100
AcDbBlockEnd
0
ENDSEC
0
SECTION
2
ENTITIES
0
LWPOLYLINE
5
100
100
AcDbEntity
8
0
100
AcDbPolyline
90
4
70
1
43
0.0
10
325.46298315300561
20
-341.05830880088388
10
270.49364155545544
20
-341.05830880088143
10
270.49364155545925
20
-255.55830880088143
10
325.46298315300942
20
-255.55830880088394
0
LWPOLYLINE
5
101
100
AcDbEntity
8
0
100
AcDbPolyline
90
4
70
1
43
0.0
10
273.49831235423056
20
-339.50830880088154
10
322.45831235423066
20
-339.50830880088375
10
322.45831235423395
20
-266.06830880088381
10
273.49831235423386
20
-266.0683088008816
0
LWPOLYLINE
5
102
100
AcDbEntity
8
0
100
AcDbPolyline
90
4
70
1
43
0.0
10
325.46298315300561
20
-341.05830880088388
10
270.49364155545544
20
-341.05830880088143
10
270.49364155545925
20
-255.55830880088143
10
325.46298315300942
20
-255.55830880088394
0
LWPOLYLINE
5
103
100
AcDbEntity
8
0
100
AcDbPolyline
90
4
70
1
43
0.0
10
273.49831235423062
20
-339.50830880088154
10
322.45831235423066
20
-339.50830880088375
10
322.45831235423395
20
-266.06830880088376
10
273.49831235423386
20
-266.0683088008816
0
CIRCLE
5
104
100
AcDbEntity
8
0
100
AcDbCircle
10
273.72831235423456
20
-251.25830880088159
30
-1.1102230246251565e-15
40
1.5999999999999996
210
-3.951371614907538e-60
220
-8.7581154020301106e-47
230
1
0
CIRCLE
5
105
100
AcDbEntity
8
0
100
AcDbCircle
10
322.22831235423462
20
-251.25830880088381
30
-1.1102230246251565e-15
40
1.5999999999999996
210
-3.951371614907538e-60
220
-8.7581154020301106e-47
230
1
0
CIRCLE
5
106
100
AcDbEntity
8
0
100
AcDbCircle
10
273.7283123542303
20
-345.35830880088156
30
-1.1102230246251565e-15
40
1.5999999999999996
210
-3.951371614907538e-60
220
-8.7581154020301106e-47
230
1
0
CIRCLE
5
107
100
AcDbEntity
8
0
100
AcDbCircle
10
322.22831235423035
20
-345.35830880088378
30
-1.1102230246251565e-15
40
1.5999999999999996
210
-3.951371614907538e-60
220
-8.7581154020301106e-47
230
1
0
LWPOLYLINE
5
108
100
AcDbEntity
8
0
100
AcDbPolyline
90
8
70
1
43
0.0
10
273.47831235423018
20
-348.5583088008816
42
-0.41421356237309503
10
270.4783123542303
20
-345.55830880088143
10
270.47831235423456
20
-251.05830880088149
42
-0.41421356237309853
10
273.47831235423473
20
-248.0583088008816
10
322.47831235423462
20
-248.05830880088371
42
-0.41421356237310542
10
325.47831235423467
20
-251.05830880088394
10
325.47831235423041
20
-345.55830880088376
42
-0.41421356237310197
10
322.47831235423018
20
-348.55830880088376
0
CIRCLE
5
109
100
AcDbEntity
8
0
100
AcDbCircle
10
322.22831235423462
20
-251.25830880088381
30
-1.1102230246251565e-15
40
2.2500000000000049
210
-7.902743229815077e-60
220
-1.7516230804060225e-46
230
1
0
CIRCLE
5
110
100
AcDbEntity
8
0
100
AcDbCircle
10
273.7283123542303
20
-345.35830880088156
30
-1.1102230246251565e-15
40
2.2500000000000049
210
-7.902743229815077e-60
220
-1.7516230804060225e-46
230
1
0
LINE
5
111
100
AcDbEntity
8
0
100
AcDbLine
10
325.46298315300942
20
-255.55830880088394
30
-1.1102230246251565e-15
11
325.46298315300561
21
-341.05830880088388
31
-1.1102230246251565e-15
0
LINE
5
112
100
AcDbEntity
8
0
100
AcDbLine
10
325.46298315300561
20
-341.05830880088388
30
-1.1102230246251565e-15
11
270.49364155545544
21
-341.05830880088143
31
-1.1102230246251565e-15
0
LINE
5
113
100
AcDbEntity
8
0
100
AcDbLine
10
270.49364155545544
20
-341.05830880088143
30
-1.1102230246251565e-15
11
270.49364155545925
21
-255.55830880088143
31
-1.1102230246251565e-15
0
LINE
5
114
100
AcDbEntity
8
0
100
AcDbLine
10
270.49364155545925
20
-255.55830880088143
30
-1.1102230246251565e-15
11
325.46298315300942
21
-255.55830880088394
31
-1.1102230246251565e-15
0
CIRCLE
5
115
100
AcDbEntity
8
0
100
AcDbCircle
10
322.22831235423035
20
-345.35830880088378
30
-1.1102230246251565e-15
40
2.2500000000000049
210
-7.902743229815077e-60
220
-1.7516230804060225e-46
230
1
0
CIRCLE
5
116
100
AcDbEntity
8
0
100
AcDbCircle
10
273.72831235423456
20
-251.25830880088159
30
-1.1102230246251565e-15
40
2.2500000000000049
210
-7.902743229815077e-60
220
-1.7516230804060225e-46
230
1
0
ENDSEC
0
SECTION
2
OBJECTS
0
DICTIONARY
5
C
100
AcDbDictionary
3
ACAD_GROUP
350
D
3
ACAD_MLINESTYLE
350
17
0
DICTIONARY
5
D
100
AcDbDictionary
0
DICTIONARY
5
1A
330
C
100
AcDbDictionary
0
DICTIONARY
5
17
100
AcDbDictionary
0
ENDSEC
0
EOF
